<svg width="60" height="58" viewBox="0 0 60 58" fill="none" xmlns="http://www.w3.org/2000/svg">
<g clip-path="url(#clip0_4105_341)">
<path d="M53.3465 16.9832C51.1152 21.5597 45.5559 23.0913 45.2934 23.1638C44.8996 23.2725 44.4777 23.1275 44.234 22.7922C43.8965 22.33 43.5215 21.8678 43.0996 21.4147C41.5246 19.72 39.6027 18.3788 37.4746 17.4725C35.3465 16.5663 33.0027 16.0769 30.6027 16.0769C25.7934 16.0769 21.2371 18.0163 18.0965 21.4147C17.684 21.8678 17.2996 22.33 16.9621 22.7922C16.7277 23.1275 16.3059 23.2725 15.9027 23.1638C15.6402 23.0913 10.0809 21.5597 7.8496 16.9832C6.64023 18.4603 4.70898 21.4328 4.39023 25.8463H5.30898C5.75898 25.8463 6.17148 26.1544 6.25585 26.5985C6.28398 26.7163 8.72148 37.6457 12.3871 43.1557L13.3434 42.1497C13.5777 41.905 13.9152 41.7963 14.2621 41.8688C14.609 41.9413 14.8809 42.1678 14.9934 42.4941C15.0027 42.5303 16.1465 45.7657 18.059 47.8591L18.2746 43.9985C18.3027 43.5272 18.6777 43.1466 19.1746 43.1103C19.6621 43.065 20.1027 43.3822 20.2059 43.8444C20.7121 46.0194 21.7809 49.2728 23.0465 51.3028C23.2059 50.3966 23.6746 49.5628 24.6027 49.0372C24.7527 48.9466 24.9215 48.9103 25.0996 48.9103C25.2121 48.9103 25.3152 48.9194 25.409 48.9557C25.6809 49.0463 25.8965 49.2366 26.009 49.4903C26.009 49.5357 28.1184 54.4657 30.6027 58C33.0871 54.4657 35.1871 49.5357 35.2059 49.4903C35.3184 49.2366 35.5246 49.0372 35.8059 48.9557C36.0777 48.865 36.3684 48.9013 36.6121 49.0372C37.4559 49.5175 37.9996 50.306 38.1777 51.3119C39.434 49.2819 40.5027 46.0285 41.009 43.8444C41.1121 43.3822 41.5621 43.0832 42.0402 43.1103C42.5371 43.1466 42.9215 43.5272 42.9402 43.9985L43.1652 47.8591C45.0777 45.7566 46.2121 42.5303 46.2215 42.4941C46.334 42.1678 46.6059 41.9413 46.9527 41.8688C47.2996 41.7963 47.6371 41.905 47.8715 42.1497L48.8371 43.1557C52.4934 37.6457 54.9215 26.7072 54.959 26.5985C55.0527 26.1635 55.4559 25.8463 55.9152 25.8463H56.834C56.4871 21.4419 54.5559 18.4513 53.3465 16.9832Z" fill="#D09E1E"/>
<path d="M9.80142 10.2407C12.5858 12.1982 17.7139 11.8901 24.6327 9.34352C28.5327 7.9207 32.817 7.91164 36.717 9.34352C43.6358 11.8901 48.7545 12.2073 51.5295 10.2407C53.0858 9.14414 53.7608 7.44945 54.0233 5.88164C53.9764 5.97227 53.9202 6.05383 53.8639 6.13539C53.0858 7.25008 51.867 7.96602 50.3389 8.20164C47.7983 8.59133 45.1639 7.42227 43.6358 5.20195C41.5639 2.21133 39.2483 0.498516 36.7264 0.0997663C33.6327 -0.407734 31.2889 1.26883 31.2608 1.28695C30.9139 1.5407 30.4358 1.5407 30.0795 1.28695C30.0608 1.27789 27.6702 -0.416796 24.5764 0.0997663C22.0827 0.516641 19.767 2.23852 17.7139 5.20195C16.1858 7.4132 13.5514 8.60039 11.0014 8.20164C9.48267 7.96602 8.25455 7.24102 7.47642 6.13539C7.42017 6.05383 7.3733 5.9632 7.31705 5.87258C7.57955 7.44945 8.25455 9.14414 9.80142 10.2407Z" fill="#D09E1E"/>
</g>
<defs>
<clipPath id="clip0_4105_341">
<rect width="60" height="58" fill="white"/>
</clipPath>
</defs>
</svg>
