<svg width="60" height="58" viewBox="0 0 60 58" fill="none" xmlns="http://www.w3.org/2000/svg">
<path fill-rule="evenodd" clip-rule="evenodd" d="M2.18034 22.8609C1.65421 19.7804 2.55614 18.2819 0 15.2014C0.300644 15.3678 2.40588 17.1996 2.78199 17.6989C2.48134 16.5334 2.25586 14.5352 2.25586 13.5361C2.40618 14.6185 3.08299 16.7831 3.38365 17.2824C3.15816 16.2 3.38365 14.8681 3.53397 13.9521C3.60913 15.7003 3.83461 16.533 4.43625 17.6984C4.06045 15.9503 3.91012 14.7848 4.06045 13.8689C5.11309 18.4479 6.24079 14.4515 5.86504 13.4528C9.3987 12.3704 11.3536 12.204 13.9853 10.0394C14.4363 9.70646 24.5861 3.29569 30.3004 1.29798C43.6839 -2.3651 51.5029 1.79734 56.089 12.8704C46.9159 1.21456 35.0372 4.12903 18.9472 15.0351C19.2478 13.8695 19.9246 12.8704 20.7517 11.788C19.5488 12.9536 18.4962 14.2023 17.8946 15.7841C17.8194 15.7841 17.7443 15.8673 17.6691 15.9505C12.4813 19.78 3.90984 25.2749 2.18085 22.8606L2.18034 22.8609Z" fill="#D09E1E"/>
<path fill-rule="evenodd" clip-rule="evenodd" d="M39.2467 43.0089C42.9307 47.6711 49.7731 47.9208 53.6077 46.9217C50.3748 47.0882 43.9835 46.672 40.9013 42.3428C45.0365 46.6721 52.0294 46.0891 55.7134 44.6739C52.5556 45.1732 46.2398 45.673 42.7065 41.8434C47.2927 45.6729 54.2848 44.2577 57.8944 42.3428C54.8117 43.2586 48.7965 44.5906 44.8875 41.5933C49.7748 44.5906 56.6165 42.3428 60 40.0949C56.0902 41.7598 49.6243 43.9244 44.8122 39.762C46.1654 39.0126 48.3458 36.8483 49.3984 33.3517C45.7896 36.0157 39.549 40.4282 31.8798 40.9276C20.5266 41.5938 11.3543 34.1007 0.677261 37.2645C4.81249 37.5974 7.14322 37.9307 10.3759 40.345C10.1504 45.0905 8.12034 45.5898 4.51125 49.5862C9.39852 46.3392 11.2027 45.6733 11.8795 41.0112C11.5789 46.1727 10.075 47.0055 8.64657 51.4179C11.0524 47.255 12.7066 46.173 13.4587 41.3439C13.158 46.7555 11.8799 47.8378 12.6316 52.6661C13.0074 47.3376 14.2859 46.3389 15.1126 41.177C14.7368 47.088 14.7368 48.6697 15.8646 53.4148C15.9397 48.1699 16.09 46.8376 16.842 41.5097C16.9172 48.5862 18.5715 52.7495 19.0976 54.2479C18.8721 49.1696 17.8947 47.421 18.6467 41.9257C18.4212 48.5861 22.0299 53.664 22.5564 54.9966C22.0303 50.0015 19.5489 47.7537 20.3009 42.0092C20.4512 48.0034 22.3309 50.0015 25.0375 55.3293C24.2103 50.7504 21.6542 47.9198 22.0299 42.2584C22.7067 49.1685 24.2855 50.6669 26.6913 54.663C25.6387 50.3337 23.9093 50.0007 23.8342 42.5076C24.3603 49.4177 26.992 52.3314 29.6233 56.078C28.1949 51.4991 25.4881 49.7509 25.7887 43.0071C26.6158 50.6666 29.6985 52.4147 33.0066 56.2438C31.202 51.9145 27.4429 49.5001 27.969 43.0895C28.6458 51.7477 32.4049 52.4139 35.9389 55.9936C34.0591 52.1641 29.8487 50.9153 29.9991 43.4222C31.0517 51.4978 35.9389 52.6633 39.7731 55.6599C36.8407 52.5794 32.1042 50.8313 31.8032 43.588C33.3067 50.7477 39.6224 53.662 44.2092 54.5775C40.9763 53.1623 34.811 50.9145 33.8335 44.1709C36.6155 51.4138 42.4047 51.9136 46.3893 52.3298C42.8556 51.5804 37.3668 49.9987 35.8629 43.9212C38.8704 49.0828 44.1335 50.5816 48.043 50.5816C44.7348 49.9154 39.9227 48.8334 37.6672 43.7547C40.9754 48.7498 47.5919 49.6657 51.5018 49.1664C48.1937 48.9167 41.8776 47.7512 39.2465 43.0057L39.2467 43.0089Z" fill="#D09E1E"/>
<path d="M0.252422 57.4771C0.23895 57.4857 0.225477 57.4912 0.211297 57.4944C0.197115 57.4983 0.182225 57.5007 0.167334 57.5007C0.121954 57.5007 0.0854374 57.4865 0.0581403 57.4583C0.0315502 57.43 0.0184326 57.3919 0.0184326 57.3436C0.0184326 57.2946 0.0315502 57.2557 0.0581403 57.2274C0.0854392 57.1992 0.121956 57.185 0.167334 57.185C0.182224 57.185 0.197114 57.1874 0.211297 57.1913C0.225478 57.1956 0.23895 57.2015 0.252422 57.2086V57.2714C0.23895 57.2612 0.225832 57.2537 0.212714 57.2494C0.200306 57.2443 0.187188 57.2416 0.173007 57.2416C0.14748 57.2416 0.127626 57.251 0.113445 57.2698C0.0992639 57.2879 0.0921727 57.3122 0.0921727 57.3436C0.0921727 57.3742 0.0992634 57.3986 0.113445 57.4174C0.127626 57.4355 0.14748 57.4441 0.173007 57.4441C0.187188 57.4441 0.200306 57.4422 0.212714 57.4378C0.225832 57.4327 0.23895 57.4249 0.252422 57.4143V57.4771Z" fill="#D09E1E"/>
<path d="M0.460135 57.3295C0.454462 57.3263 0.448789 57.3244 0.443117 57.3232C0.437444 57.3212 0.431772 57.3201 0.426099 57.3201C0.409082 57.3201 0.395609 57.3263 0.386392 57.3389C0.377883 57.3507 0.373629 57.3672 0.373629 57.3892V57.4944H0.306976V57.2667H0.373629V57.3044C0.382138 57.2898 0.391355 57.2792 0.401992 57.273C0.413337 57.2659 0.426454 57.262 0.441699 57.262H0.44879C0.451626 57.262 0.455171 57.2627 0.460135 57.2635L0.460135 57.3295Z" fill="#D09E1E"/>
<path d="M0.698065 57.3797V57.4001H0.544907C0.545616 57.4182 0.550934 57.4312 0.560506 57.4394C0.569724 57.448 0.583551 57.452 0.601632 57.452C0.614749 57.452 0.628577 57.45 0.642757 57.4457C0.657647 57.4406 0.672892 57.4331 0.688137 57.4237V57.4802C0.672892 57.4865 0.657293 57.4912 0.64134 57.4944C0.626094 57.4983 0.610495 57.5006 0.594542 57.5006C0.55767 57.5006 0.528599 57.4904 0.508036 57.4692C0.487118 57.4484 0.476837 57.419 0.476837 57.3813C0.476837 57.3436 0.486765 57.3146 0.506617 57.2934C0.52718 57.2726 0.555543 57.262 0.591705 57.262C0.623613 57.262 0.649139 57.273 0.668284 57.2949C0.688138 57.3161 0.698065 57.3444 0.698065 57.3797ZM0.629994 57.3562C0.629994 57.3428 0.626095 57.3318 0.618649 57.3232C0.611913 57.3138 0.602341 57.3091 0.590287 57.3091C0.577878 57.3091 0.567597 57.3134 0.559088 57.3216C0.551288 57.3303 0.546679 57.3417 0.544907 57.3562L0.629994 57.3562Z" fill="#D09E1E"/>
<path d="M0.839495 57.3923C0.826023 57.3923 0.815741 57.395 0.808296 57.4001C0.80156 57.4056 0.798369 57.4127 0.798369 57.4221C0.798369 57.4316 0.801205 57.439 0.806878 57.4441C0.81255 57.4496 0.819995 57.452 0.829568 57.452C0.841622 57.452 0.852258 57.4473 0.860767 57.4378C0.869276 57.4276 0.87353 57.4151 0.87353 57.4001V57.3923L0.839495 57.3923ZM0.940185 57.364V57.4944H0.873532V57.4614C0.865023 57.4751 0.855097 57.4849 0.843752 57.4912C0.833116 57.4975 0.819998 57.5006 0.804044 57.5006C0.782063 57.5006 0.764691 57.494 0.751574 57.4802C0.738101 57.4657 0.73172 57.448 0.73172 57.4268C0.73172 57.3998 0.73952 57.3797 0.755828 57.3672C0.772845 57.3546 0.799081 57.3483 0.835243 57.3483H0.873533V57.3436C0.873533 57.3322 0.869279 57.324 0.86077 57.3185C0.852971 57.3122 0.840917 57.3091 0.823899 57.3091C0.809718 57.3091 0.796245 57.3106 0.784191 57.3138C0.771783 57.3169 0.760437 57.3216 0.750156 57.3279V57.273C0.764337 57.269 0.778519 57.2663 0.7927 57.2651C0.806881 57.2631 0.821063 57.262 0.835244 57.262C0.872115 57.262 0.898351 57.2706 0.914659 57.2871C0.931677 57.3028 0.940185 57.3287 0.940185 57.364Z" fill="#D09E1E"/>
<path d="M1.07316 57.2023V57.2667H1.14123V57.3185H1.07316V57.4159C1.07316 57.4265 1.07493 57.4339 1.07883 57.4378C1.08238 57.441 1.09018 57.4426 1.10152 57.4426H1.13556V57.4944H1.07883C1.05224 57.4944 1.03381 57.4889 1.02353 57.4771C1.01289 57.4645 1.00793 57.4441 1.00793 57.4159V57.3185H0.973892V57.2667H1.00793V57.2023L1.07316 57.2023Z" fill="#D09E1E"/>
<path d="M1.38619 57.3797V57.4001H1.23303C1.23374 57.4182 1.23906 57.4312 1.24863 57.4394C1.25785 57.448 1.27168 57.452 1.28976 57.452C1.30288 57.452 1.3167 57.45 1.33088 57.4457C1.34577 57.4406 1.36102 57.4331 1.37626 57.4237V57.4802C1.36102 57.4865 1.34542 57.4912 1.32947 57.4944C1.31422 57.4983 1.29862 57.5006 1.28267 57.5006C1.2458 57.5006 1.21672 57.4904 1.19616 57.4692C1.17524 57.4484 1.16496 57.419 1.16496 57.3813C1.16496 57.3436 1.17489 57.3146 1.19474 57.2934C1.21531 57.2726 1.24367 57.262 1.27983 57.262C1.31174 57.262 1.33727 57.273 1.35641 57.2949C1.37626 57.3161 1.38619 57.3444 1.38619 57.3797ZM1.31812 57.3562C1.31812 57.3428 1.31422 57.3318 1.30678 57.3232C1.30004 57.3138 1.29047 57.3091 1.27841 57.3091C1.266 57.3091 1.25572 57.3134 1.24721 57.3216C1.23941 57.3303 1.2348 57.3417 1.23303 57.3562L1.31812 57.3562Z" fill="#D09E1E"/>
<path d="M1.57624 57.2997V57.1787H1.64147V57.4944H1.57624V57.4614C1.56666 57.4751 1.55638 57.4849 1.54504 57.4912C1.5344 57.4975 1.52235 57.5007 1.50817 57.5007C1.48264 57.5007 1.46172 57.4897 1.44577 57.4677C1.42946 57.4449 1.42166 57.4159 1.42166 57.3813C1.42166 57.346 1.42946 57.3169 1.44577 57.2949C1.46172 57.273 1.48264 57.262 1.50817 57.262C1.52235 57.262 1.5344 57.2651 1.54504 57.2714C1.55638 57.2777 1.56666 57.2871 1.57624 57.2997ZM1.53227 57.4473C1.54646 57.4473 1.55709 57.4418 1.56489 57.43C1.57234 57.4186 1.57624 57.4025 1.57624 57.3813C1.57624 57.3593 1.57234 57.3428 1.56489 57.3311C1.55709 57.3197 1.54646 57.3138 1.53227 57.3138C1.5188 57.3138 1.50852 57.3197 1.50108 57.3311C1.49328 57.3428 1.48973 57.3593 1.48973 57.3813C1.48973 57.4025 1.49328 57.4186 1.50108 57.43C1.50852 57.4418 1.5188 57.4473 1.53227 57.4473Z" fill="#D09E1E"/>
<path d="M1.94497 57.4473C1.95915 57.4473 1.96978 57.4418 1.97758 57.43C1.98503 57.4186 1.98893 57.4025 1.98893 57.3813C1.98893 57.3593 1.98503 57.3428 1.97758 57.3311C1.96978 57.3197 1.95915 57.3138 1.94497 57.3138C1.93078 57.3138 1.91979 57.3197 1.91235 57.3311C1.90561 57.3428 1.90242 57.3593 1.90242 57.3813C1.90242 57.4025 1.90561 57.4186 1.91235 57.43C1.91979 57.4418 1.93078 57.4473 1.94497 57.4473ZM1.90242 57.2997C1.91093 57.2871 1.92015 57.2777 1.93078 57.2714C1.94213 57.2651 1.95525 57.262 1.97049 57.262C1.99496 57.262 2.01516 57.273 2.03147 57.2949C2.04849 57.3169 2.057 57.346 2.057 57.3813C2.057 57.4159 2.04849 57.4449 2.03147 57.4677C2.01516 57.4897 1.99496 57.5007 1.97049 57.5007C1.95525 57.5007 1.94213 57.4975 1.93078 57.4912C1.92015 57.4849 1.91093 57.4751 1.90242 57.4614V57.4944H1.83577V57.1787H1.90242V57.2997Z" fill="#D09E1E"/>
<path d="M2.07787 57.2667H2.14452L2.19983 57.4205L2.24662 57.2667H2.31186L2.22535 57.5163C2.21684 57.5415 2.20621 57.5587 2.19415 57.5682C2.18281 57.5784 2.16756 57.5839 2.14877 57.5839H2.1119V57.5368H2.13176C2.1431 57.5368 2.1509 57.5344 2.15586 57.5305C2.16154 57.5262 2.16579 57.5195 2.16863 57.5101L2.17004 57.5038L2.07787 57.2667Z" fill="#D09E1E"/>
<path d="M2.48064 57.1787H2.54729V57.3499L2.62245 57.2667H2.69903L2.59834 57.3719L2.70612 57.4944H2.6267L2.54729 57.4002V57.4944H2.48064L2.48064 57.1787Z" fill="#D09E1E"/>
<path d="M2.82279 57.3923C2.80931 57.3923 2.79903 57.395 2.79159 57.4001C2.78485 57.4056 2.78166 57.4127 2.78166 57.4221C2.78166 57.4316 2.7845 57.439 2.79017 57.4441C2.79584 57.4496 2.80329 57.452 2.81286 57.452C2.82491 57.452 2.83555 57.4473 2.84406 57.4378C2.85257 57.4276 2.85682 57.4151 2.85682 57.4001V57.3923L2.82279 57.3923ZM2.92348 57.364V57.4944H2.85682V57.4614C2.84832 57.4751 2.83839 57.4849 2.82704 57.4912C2.81641 57.4975 2.80329 57.5006 2.78734 57.5006C2.76535 57.5006 2.74798 57.494 2.73487 57.4802C2.72139 57.4657 2.71501 57.448 2.71501 57.4268C2.71501 57.3998 2.72281 57.3797 2.73912 57.3672C2.75614 57.3546 2.78237 57.3483 2.81853 57.3483H2.85682V57.3436C2.85682 57.3322 2.85257 57.324 2.84406 57.3185C2.83626 57.3122 2.82421 57.3091 2.80719 57.3091C2.79301 57.3091 2.77954 57.3106 2.76748 57.3138C2.75507 57.3169 2.74373 57.3216 2.73345 57.3279V57.273C2.74763 57.269 2.76181 57.2663 2.77599 57.2651C2.79017 57.2631 2.80435 57.262 2.81854 57.262C2.85541 57.262 2.88164 57.2706 2.89795 57.2871C2.91497 57.3028 2.92348 57.3287 2.92348 57.364Z" fill="#D09E1E"/>
<path d="M3.13761 57.3295C3.13194 57.3263 3.12626 57.3244 3.12059 57.3232C3.11492 57.3212 3.10925 57.3201 3.10357 57.3201C3.08656 57.3201 3.07308 57.3263 3.06387 57.3389C3.05536 57.3507 3.0511 57.3672 3.0511 57.3892V57.4944H2.98445V57.2667H3.0511V57.3044C3.05961 57.2898 3.06883 57.2792 3.07947 57.273C3.09081 57.2659 3.10393 57.262 3.11917 57.262H3.12626C3.1291 57.262 3.13265 57.2627 3.13761 57.2635L3.13761 57.3295Z" fill="#D09E1E"/>
<path d="M3.37546 57.3797V57.4001H3.22231C3.22301 57.4182 3.22833 57.4312 3.23791 57.4394C3.24712 57.448 3.26095 57.452 3.27903 57.452C3.29215 57.452 3.30598 57.45 3.32016 57.4457C3.33505 57.4406 3.35029 57.4331 3.36554 57.4237V57.4802C3.35029 57.4865 3.33469 57.4912 3.31874 57.4944C3.30349 57.4983 3.28789 57.5006 3.27194 57.5006C3.23507 57.5006 3.206 57.4904 3.18543 57.4692C3.16452 57.4484 3.15424 57.419 3.15424 57.3813C3.15424 57.3436 3.16416 57.3146 3.18402 57.2934C3.20458 57.2726 3.23294 57.262 3.2691 57.262C3.30101 57.262 3.32654 57.273 3.34568 57.2949C3.36554 57.3161 3.37546 57.3444 3.37546 57.3797ZM3.30739 57.3562C3.30739 57.3428 3.30349 57.3318 3.29605 57.3232C3.28931 57.3138 3.27974 57.3091 3.26769 57.3091C3.25528 57.3091 3.245 57.3134 3.23649 57.3216C3.22869 57.3303 3.22408 57.3417 3.22231 57.3562L3.30739 57.3562Z" fill="#D09E1E"/>
<path d="M3.63042 57.3797V57.4001H3.47726C3.47797 57.4182 3.48329 57.4312 3.49286 57.4394C3.50208 57.448 3.51591 57.452 3.53399 57.452C3.54711 57.452 3.56093 57.45 3.57511 57.4457C3.59001 57.4406 3.60525 57.4331 3.6205 57.4237V57.4802C3.60525 57.4865 3.58965 57.4912 3.5737 57.4944C3.55845 57.4983 3.54285 57.5006 3.5269 57.5006C3.49003 57.5006 3.46096 57.4904 3.44039 57.4692C3.41948 57.4484 3.40919 57.419 3.40919 57.3813C3.40919 57.3436 3.41912 57.3146 3.43898 57.2934C3.45954 57.2726 3.4879 57.262 3.52406 57.262C3.55597 57.262 3.5815 57.273 3.60064 57.2949C3.6205 57.3161 3.63042 57.3444 3.63042 57.3797ZM3.56235 57.3562C3.56235 57.3428 3.55845 57.3318 3.55101 57.3232C3.54427 57.3138 3.5347 57.3091 3.52264 57.3091C3.51024 57.3091 3.49995 57.3134 3.49145 57.3216C3.48365 57.3303 3.47904 57.3417 3.47726 57.3562L3.56235 57.3562Z" fill="#D09E1E"/>
<path d="M3.87111 57.3044C3.87855 57.291 3.88812 57.2804 3.89947 57.273C3.91152 57.2659 3.92429 57.262 3.93776 57.262C3.96116 57.262 3.97924 57.2698 3.99165 57.2855C4.0037 57.3012 4.01008 57.3248 4.01008 57.3562V57.4944H3.94485V57.375V57.3703V57.3625C3.94485 57.346 3.94237 57.3342 3.93776 57.3279C3.93386 57.3208 3.92712 57.3169 3.9179 57.3169C3.90443 57.3169 3.89451 57.3228 3.88812 57.3342C3.88139 57.3448 3.8782 57.3609 3.8782 57.3829V57.4944H3.81154V57.375C3.81154 57.3499 3.80942 57.3342 3.80587 57.3279C3.80197 57.3209 3.79488 57.3169 3.7846 57.3169C3.77219 57.3169 3.76262 57.3228 3.75624 57.3342C3.7495 57.3448 3.74631 57.3609 3.74631 57.3829V57.4944H3.67966V57.2667H3.74631V57.2997C3.75375 57.2871 3.76262 57.2777 3.77325 57.2714C3.78354 57.2651 3.79524 57.262 3.80871 57.262C3.82289 57.262 3.83494 57.2659 3.84558 57.273C3.85692 57.2804 3.86543 57.291 3.87111 57.3044Z" fill="#D09E1E"/>
<path d="M4.16927 57.3138C4.15509 57.3138 4.1441 57.3197 4.13665 57.3311C4.12885 57.3428 4.1253 57.3593 4.1253 57.3813C4.1253 57.4033 4.12885 57.4202 4.13665 57.4316C4.14409 57.4433 4.15508 57.4488 4.16927 57.4488C4.18345 57.4488 4.19408 57.4433 4.20188 57.4316C4.20933 57.4202 4.21323 57.4033 4.21323 57.3813C4.21323 57.3593 4.20933 57.3428 4.20188 57.3311C4.19408 57.3197 4.18345 57.3138 4.16927 57.3138ZM4.16927 57.262C4.20507 57.262 4.23308 57.2726 4.25294 57.2934C4.27279 57.3146 4.28272 57.3436 4.28272 57.3813C4.28272 57.4182 4.27279 57.4473 4.25294 57.4692C4.23308 57.4904 4.20508 57.5006 4.16927 57.5006C4.13417 57.5006 4.10616 57.4904 4.0856 57.4692C4.06574 57.4473 4.05582 57.4182 4.05582 57.3813C4.05582 57.3436 4.06574 57.3146 4.0856 57.2934C4.10616 57.2726 4.13417 57.262 4.16927 57.262Z" fill="#D09E1E"/>
<path d="M4.30403 57.2667H4.36927L4.42032 57.4237L4.47137 57.2667H4.53802L4.45719 57.4944H4.38487L4.30403 57.2667Z" fill="#D09E1E"/>
<path d="M4.57484 57.2667H4.6415V57.4944H4.57484V57.2667ZM4.57484 57.1787H4.6415V57.2368H4.57484V57.1787Z" fill="#D09E1E"/>
<path d="M4.86948 57.2745V57.3326C4.86097 57.3263 4.85175 57.3216 4.84253 57.3185C4.83403 57.3154 4.82481 57.3138 4.81559 57.3138C4.79644 57.3138 4.78191 57.3197 4.77163 57.3311C4.76205 57.3428 4.75745 57.3593 4.75745 57.3813C4.75745 57.4025 4.76205 57.419 4.77163 57.4316C4.78191 57.4433 4.79644 57.4488 4.81559 57.4488C4.82587 57.4488 4.83544 57.4473 4.84395 57.4441C4.85317 57.4402 4.86168 57.4347 4.86948 57.4284V57.4881C4.85884 57.4924 4.84856 57.4952 4.83828 57.4975C4.82764 57.4995 4.81736 57.5006 4.80708 57.5006C4.77021 57.5006 4.74078 57.4904 4.71916 57.4692C4.69824 57.4484 4.68796 57.419 4.68796 57.3813C4.68796 57.3436 4.69824 57.3146 4.71916 57.2934C4.74078 57.2726 4.77021 57.262 4.80708 57.262C4.81736 57.262 4.82764 57.2631 4.83828 57.2651C4.84856 57.2675 4.85884 57.2706 4.86948 57.2745Z" fill="#D09E1E"/>
<path d="M0.167345 57.5948V57.642H0.130473C0.120901 57.642 0.114165 57.6443 0.110619 57.6482C0.10672 57.6514 0.104947 57.6577 0.104947 57.6671V57.6828H0.161672V57.7346H0.104947V57.9105H0.0397128V57.7346H0.00709534V57.6828H0.0397128V57.6671C0.0397128 57.642 0.0457399 57.6239 0.0581481 57.6121C0.070202 57.6007 0.0897019 57.5948 0.116291 57.5948L0.167345 57.5948Z" fill="#D09E1E"/>
<path d="M0.347769 57.7456C0.342096 57.7425 0.336424 57.7405 0.330751 57.7393C0.325079 57.7374 0.319406 57.7362 0.313734 57.7362C0.296716 57.7362 0.283244 57.7425 0.274026 57.755C0.265517 57.7668 0.261263 57.7833 0.261263 57.8053V57.9105H0.194611V57.6828H0.261263V57.7205C0.269772 57.706 0.27899 57.6954 0.289626 57.6891C0.300971 57.682 0.314089 57.6781 0.329334 57.6781H0.336424C0.33926 57.6781 0.342806 57.6789 0.347769 57.6797L0.347769 57.7456Z" fill="#D09E1E"/>
<path d="M0.477922 57.7299C0.463741 57.7299 0.45275 57.7358 0.445304 57.7472C0.437505 57.759 0.433959 57.7755 0.433959 57.7974C0.433959 57.8194 0.437505 57.8363 0.445304 57.8477C0.45275 57.8595 0.46374 57.865 0.477922 57.865C0.492104 57.865 0.502739 57.8595 0.510539 57.8477C0.517985 57.8363 0.521885 57.8194 0.521885 57.7974C0.521885 57.7755 0.517985 57.759 0.510539 57.7472C0.50274 57.7358 0.492104 57.7299 0.477922 57.7299ZM0.477922 57.6781C0.51373 57.6781 0.541737 57.6887 0.561592 57.7095C0.581446 57.7307 0.591372 57.7598 0.591372 57.7974C0.591372 57.8343 0.581445 57.8634 0.561592 57.8854C0.541738 57.9066 0.513731 57.9168 0.477922 57.9168C0.442823 57.9168 0.414815 57.9066 0.394252 57.8854C0.374398 57.8634 0.364471 57.8343 0.364471 57.7974C0.364471 57.7598 0.374399 57.7307 0.394252 57.7095C0.414814 57.6887 0.442823 57.6781 0.477922 57.6781Z" fill="#D09E1E"/>
<path d="M0.829587 57.7205C0.837033 57.7072 0.846605 57.6966 0.85795 57.6891C0.870004 57.682 0.882768 57.6781 0.89624 57.6781C0.919639 57.6781 0.93772 57.686 0.950129 57.7017C0.962183 57.7174 0.968564 57.7409 0.968564 57.7723V57.9105H0.90333V57.7912V57.7865V57.7786C0.90333 57.7621 0.900849 57.7503 0.89624 57.7441C0.89234 57.737 0.885603 57.7331 0.876386 57.7331C0.862913 57.7331 0.852987 57.7389 0.846605 57.7503C0.839869 57.7609 0.836678 57.777 0.836678 57.799V57.9105H0.770025V57.7912C0.770025 57.766 0.767898 57.7503 0.764353 57.7441C0.760453 57.737 0.753363 57.7331 0.74308 57.7331C0.730672 57.7331 0.721099 57.739 0.714718 57.7503C0.707982 57.7609 0.70479 57.777 0.70479 57.799V57.9105H0.638138V57.6828H0.70479V57.7158C0.712236 57.7032 0.721099 57.6938 0.731735 57.6875C0.742017 57.6812 0.753717 57.6781 0.767188 57.6781C0.78137 57.6781 0.793423 57.682 0.80406 57.6891C0.815405 57.6966 0.823915 57.7072 0.829587 57.7205Z" fill="#D09E1E"/>
<path d="M1.23307 57.6184V57.6828H1.30114V57.7346H1.23307V57.832C1.23307 57.8426 1.23485 57.85 1.23875 57.854C1.24229 57.8571 1.25009 57.8587 1.26144 57.8587H1.29547V57.9105H1.23875C1.21216 57.9105 1.19372 57.905 1.18344 57.8932C1.1728 57.8806 1.16784 57.8602 1.16784 57.832V57.7346H1.1338V57.6828H1.16784V57.6184L1.23307 57.6184Z" fill="#D09E1E"/>
<path d="M1.5475 57.7723V57.9105H1.48085V57.8053C1.48085 57.7856 1.48014 57.7719 1.47943 57.7644C1.47943 57.7562 1.47837 57.7503 1.4766 57.7472C1.47376 57.7432 1.46986 57.7401 1.46525 57.7377C1.46135 57.7346 1.45674 57.733 1.45107 57.733C1.43689 57.733 1.4259 57.7389 1.41845 57.7503C1.41065 57.7621 1.40711 57.7782 1.40711 57.799V57.9105H1.34045V57.5948H1.40711V57.7158C1.41632 57.7032 1.42696 57.6938 1.43831 57.6875C1.44965 57.6812 1.4617 57.6781 1.47518 57.6781C1.49858 57.6781 1.51666 57.6859 1.52907 57.7016C1.54112 57.7173 1.5475 57.7409 1.5475 57.7723Z" fill="#D09E1E"/>
<path d="M1.81379 57.7959V57.8163H1.66063C1.66134 57.8343 1.66666 57.8473 1.67623 57.8555C1.68545 57.8642 1.69927 57.8681 1.71735 57.8681C1.73047 57.8681 1.7443 57.8661 1.75848 57.8618C1.77337 57.8567 1.78862 57.8493 1.80386 57.8398V57.8964C1.78862 57.9027 1.77302 57.9074 1.75706 57.9105C1.74182 57.9144 1.72622 57.9168 1.71026 57.9168C1.67339 57.9168 1.64432 57.9066 1.62376 57.8854C1.60284 57.8646 1.59256 57.8351 1.59256 57.7974C1.59256 57.7598 1.60249 57.7307 1.62234 57.7095C1.6429 57.6887 1.67127 57.6781 1.70743 57.6781C1.73934 57.6781 1.76486 57.6891 1.78401 57.7111C1.80386 57.7323 1.81379 57.7605 1.81379 57.7959ZM1.74572 57.7723C1.74572 57.759 1.74182 57.748 1.73437 57.7393C1.72764 57.7299 1.71806 57.7252 1.70601 57.7252C1.6936 57.7252 1.68332 57.7295 1.67481 57.7378C1.66701 57.7464 1.6624 57.7578 1.66063 57.7723L1.74572 57.7723Z" fill="#D09E1E"/>
<path d="M1.99707 57.6074H2.07649L2.17576 57.8147V57.6074H2.24241V57.9105H2.16441L2.06514 57.7016V57.9105H1.99707V57.6074Z" fill="#D09E1E"/>
<path d="M2.40657 57.7299C2.39239 57.7299 2.3814 57.7358 2.37395 57.7472C2.36615 57.759 2.36261 57.7755 2.36261 57.7974C2.36261 57.8194 2.36615 57.8363 2.37395 57.8477C2.3814 57.8595 2.39239 57.865 2.40657 57.865C2.42075 57.865 2.43139 57.8595 2.43919 57.8477C2.44663 57.8363 2.45053 57.8194 2.45053 57.7974C2.45053 57.7755 2.44663 57.759 2.43919 57.7472C2.43139 57.7358 2.42075 57.7299 2.40657 57.7299ZM2.40657 57.6781C2.44238 57.6781 2.47039 57.6887 2.49024 57.7095C2.5101 57.7307 2.52002 57.7598 2.52002 57.7974C2.52002 57.8343 2.5101 57.8634 2.49024 57.8854C2.47039 57.9066 2.44238 57.9168 2.40657 57.9168C2.37147 57.9168 2.34347 57.9066 2.3229 57.8854C2.30305 57.8634 2.29312 57.8343 2.29312 57.7974C2.29312 57.7598 2.30305 57.7307 2.3229 57.7095C2.34346 57.6887 2.37147 57.6781 2.40657 57.6781Z" fill="#D09E1E"/>
<path d="M2.5654 57.8225V57.6828H2.63063V57.7063V57.7519V57.7896C2.63063 57.8076 2.63099 57.8206 2.63205 57.8288C2.63276 57.8374 2.63418 57.8429 2.63631 57.8461C2.63914 57.8516 2.64233 57.8555 2.64623 57.8586C2.65084 57.861 2.65616 57.8618 2.66183 57.8618C2.67601 57.8618 2.68665 57.8563 2.69445 57.8445C2.7019 57.8319 2.7058 57.8159 2.7058 57.7958V57.6828H2.77103V57.9105H2.7058V57.8775C2.69622 57.8912 2.68594 57.901 2.6746 57.9073C2.66325 57.9136 2.65084 57.9167 2.63773 57.9167C2.61397 57.9167 2.59589 57.9089 2.58384 57.8932C2.57143 57.8767 2.5654 57.8531 2.5654 57.8225Z" fill="#D09E1E"/>
<path d="M3.04152 57.7723V57.9105H2.97487V57.8037C2.97487 57.7849 2.97416 57.7719 2.97345 57.7645C2.97345 57.7562 2.97239 57.7503 2.97061 57.7472C2.96778 57.7433 2.96388 57.7401 2.95927 57.7378C2.95537 57.7346 2.95076 57.7331 2.94509 57.7331C2.93091 57.7331 2.91992 57.7389 2.91247 57.7503C2.90467 57.7621 2.90113 57.7782 2.90113 57.799V57.9105H2.83447V57.6828H2.90113V57.7158C2.91034 57.7032 2.92098 57.6938 2.93232 57.6875C2.94367 57.6812 2.95572 57.6781 2.9692 57.6781C2.99259 57.6781 3.01068 57.686 3.02308 57.7017C3.03514 57.7174 3.04152 57.7409 3.04152 57.7723Z" fill="#D09E1E"/>
<path d="M3.23579 57.6074H3.3535C3.38825 57.6074 3.41484 57.6165 3.43292 57.6341C3.45171 57.651 3.46128 57.6749 3.46128 57.7063C3.46128 57.7378 3.45171 57.7625 3.43292 57.7802C3.41484 57.797 3.38825 57.8053 3.3535 57.8053H3.3067V57.9105H3.2358L3.23579 57.6074ZM3.3067 57.664V57.7487H3.34641C3.35953 57.7487 3.36981 57.7452 3.37761 57.7378C3.38505 57.7307 3.38895 57.7201 3.38895 57.7063C3.38895 57.693 3.38505 57.6824 3.37761 57.6749C3.36981 57.6679 3.35953 57.664 3.34641 57.664L3.3067 57.664Z" fill="#D09E1E"/>
<path d="M3.66158 57.7456C3.65591 57.7425 3.65024 57.7405 3.64456 57.7393C3.63889 57.7374 3.63322 57.7362 3.62755 57.7362C3.61053 57.7362 3.59706 57.7425 3.58784 57.755C3.57933 57.7668 3.57508 57.7833 3.57508 57.8053V57.9105H3.50842V57.6828H3.57508V57.7205C3.58358 57.706 3.5928 57.6954 3.60344 57.6891C3.61478 57.682 3.6279 57.6781 3.64315 57.6781H3.65024C3.65307 57.6781 3.65662 57.6789 3.66158 57.6797L3.66158 57.7456Z" fill="#D09E1E"/>
<path d="M3.79172 57.7299C3.77754 57.7299 3.76655 57.7358 3.7591 57.7472C3.7513 57.759 3.74776 57.7755 3.74776 57.7974C3.74776 57.8194 3.7513 57.8363 3.7591 57.8477C3.76655 57.8595 3.77754 57.865 3.79172 57.865C3.8059 57.865 3.81654 57.8595 3.82434 57.8477C3.83178 57.8363 3.83568 57.8194 3.83568 57.7974C3.83568 57.7755 3.83178 57.759 3.82434 57.7472C3.81654 57.7358 3.8059 57.7299 3.79172 57.7299ZM3.79172 57.6781C3.82753 57.6781 3.85553 57.6887 3.87539 57.7095C3.89524 57.7307 3.90517 57.7598 3.90517 57.7974C3.90517 57.8343 3.89524 57.8634 3.87539 57.8854C3.85554 57.9066 3.82753 57.9168 3.79172 57.9168C3.75662 57.9168 3.72861 57.9066 3.70805 57.8854C3.68819 57.8634 3.67827 57.8343 3.67827 57.7974C3.67827 57.7598 3.6882 57.7307 3.70805 57.7095C3.72861 57.6887 3.75662 57.6781 3.79172 57.6781Z" fill="#D09E1E"/>
<path d="M3.95229 57.6828H4.01894V57.9058C4.01894 57.9372 4.0122 57.9607 3.99909 57.9764C3.98561 57.9921 3.96647 58 3.94094 58H3.90833V57.9529H3.91967C3.93172 57.9529 3.94023 57.9497 3.9452 57.9435C3.94981 57.9372 3.95229 57.9246 3.95229 57.9058L3.95229 57.6828ZM3.95229 57.5948H4.01894V57.6529H3.95229V57.5948Z" fill="#D09E1E"/>
<path d="M4.28666 57.7958V57.8163H4.1335C4.13421 57.8343 4.13953 57.8473 4.1491 57.8555C4.15832 57.8642 4.17214 57.8681 4.19022 57.8681C4.20334 57.8681 4.21717 57.8661 4.23135 57.8618C4.24624 57.8567 4.26148 57.8492 4.27673 57.8398V57.8963C4.26148 57.9026 4.24589 57.9073 4.22993 57.9105C4.21469 57.9144 4.19909 57.9168 4.18313 57.9168C4.14626 57.9168 4.11719 57.9065 4.09663 57.8853C4.07571 57.8645 4.06543 57.8351 4.06543 57.7974C4.06543 57.7597 4.07536 57.7307 4.09521 57.7095C4.11577 57.6887 4.14414 57.6781 4.1803 57.6781C4.21221 57.6781 4.23773 57.6891 4.25688 57.711C4.27673 57.7322 4.28666 57.7605 4.28666 57.7958ZM4.21859 57.7723C4.21859 57.7589 4.21469 57.7479 4.20724 57.7393C4.20051 57.7299 4.19093 57.7252 4.17888 57.7252C4.16647 57.7252 4.15619 57.7295 4.14768 57.7377C4.13988 57.7464 4.13527 57.7578 4.1335 57.7723L4.21859 57.7723Z" fill="#D09E1E"/>
<path d="M4.50182 57.6907V57.7488C4.49331 57.7425 4.48409 57.7378 4.47487 57.7346C4.46637 57.7315 4.45715 57.7299 4.44793 57.7299C4.42878 57.7299 4.41425 57.7358 4.40397 57.7472C4.39439 57.759 4.38979 57.7755 4.38979 57.7974C4.38979 57.8186 4.39439 57.8351 4.40397 57.8477C4.41425 57.8595 4.42878 57.865 4.44793 57.865C4.45821 57.865 4.46778 57.8634 4.47629 57.8603C4.48551 57.8563 4.49402 57.8508 4.50182 57.8446V57.9042C4.49118 57.9085 4.4809 57.9113 4.47062 57.9136C4.45998 57.9156 4.4497 57.9168 4.43942 57.9168C4.40255 57.9168 4.37312 57.9066 4.3515 57.8854C4.33058 57.8646 4.3203 57.8351 4.3203 57.7974C4.3203 57.7598 4.33058 57.7307 4.3515 57.7095C4.37312 57.6887 4.40255 57.6781 4.43942 57.6781C4.4497 57.6781 4.45998 57.6793 4.47062 57.6812C4.4809 57.6836 4.49118 57.6867 4.50182 57.6907Z" fill="#D09E1E"/>
<path d="M4.63122 57.6184V57.6828H4.69929V57.7346H4.63122V57.832C4.63122 57.8426 4.63299 57.85 4.63689 57.854C4.64044 57.8571 4.64824 57.8587 4.65958 57.8587H4.69362V57.9105H4.63689C4.6103 57.9105 4.59187 57.905 4.58159 57.8932C4.57095 57.8806 4.56599 57.8602 4.56599 57.832V57.7346H4.53195V57.6828H4.56599V57.6184L4.63122 57.6184Z" fill="#D09E1E"/>
</svg>
