<svg width="60" height="58" viewBox="0 0 60 58" fill="none" xmlns="http://www.w3.org/2000/svg">
<path d="M7.94256 50.4049C7.18488 47.9698 6.78326 45.3941 6.75654 42.7933L8.76097 45.3607C7.00426 41.2329 6.75654 34.0382 6.75654 34.0382C10.6151 20.2122 22.8732 26.4178 22.8732 26.4178L24.022 26.1368C24.022 26.1368 21.9201 23.7599 16.2 22.1816C10.4799 20.6034 6.15577 27.6884 6.15577 27.6884C13.3101 14.1435 24.7724 25.7102 24.7724 25.7102H27.5723C25.703 20.9109 16.8301 18.4523 16.8301 18.4523C20.6809 18.2707 26.4008 21.0285 28.2703 23.896C30.1396 26.7626 35.777 25.7102 36.2121 25.7102C36.6472 25.7102 43.5686 24.5851 46.7213 24.7211C49.8745 24.8572 52.5471 34.1837 52.5471 38.1029C52.5471 42.022 54.2961 44.0362 55.5496 46.5764C56.8031 49.1166 55.5496 58.1431 55.9025 57.9983C56.2554 57.8534 57.6514 46.1499 57.3064 44.671C56.9613 43.192 58.3573 39.6539 59.6407 34.5736H59.6412C60.3643 31.4045 59.9847 28.0158 58.5898 25.1934C58.5898 25.1934 58.0347 19.36 55.6998 21.773C54.1363 23.3013 52.356 24.4726 50.4452 25.2295C51.9612 24.2201 53.2262 22.7387 54.1096 20.9396C54.9924 19.1406 55.4611 17.0883 55.4674 14.9961C55.8124 7.37563 50.2128 9.91584 50.2128 9.91584C50.7909 6.95799 53.9662 8.79068 53.9662 8.79068L51.1663 6.25047H51.1658C49.9625 5.55057 48.6016 5.3487 47.2935 5.6765C45.9855 6.00493 44.8032 6.84405 43.9292 8.06539C42.2928 1.71504 34.7034 1.5694 34.7034 1.5694L26.8589 0L29.4262 1.81427C17.5132 -1.57888 11.5602 4.91695 6.30551 9.97889C1.05094 15.0415 0 24.8666 0 24.8666L2.25215 19.3598C-1.63633 30.6545 7.94184 50.4044 7.94184 50.4044L7.94256 50.4049Z" fill="#D09E1E"/>
</svg>
