<svg width="188" height="168" viewBox="0 0 188 168" fill="none" xmlns="http://www.w3.org/2000/svg">
<path d="M16.1241 130.022L15.781 130.365H14.4088L14.0657 130.708H13.0365L12.6934 131.051H12.3504L12.0073 131.394H11.6642L11.3212 131.737H10.9781L10.635 132.08H10.292L9.9489 132.423H9.60584L8.91971 133.11H8.57664L7.20438 134.482H6.86131L4.80292 136.54V136.883L3.77372 137.912V138.256L3.08759 138.942V139.285L2.40146 139.971V140.314L2.05839 140.657V141L1.71533 141.343V141.686L1.37226 142.029V142.372L1.0292 142.715V143.402L0.686131 143.745V144.431L0.343066 144.774V146.146L0 146.489V151.978L0.343066 152.321V153.35L0.686131 153.694V154.38L1.0292 154.723V155.409L1.37226 155.752V156.095L1.71533 156.438V156.781L2.05839 157.124V157.467L2.74453 158.153V158.496L5.83212 161.584H6.17518L6.86131 162.27H7.20438L7.54744 162.613H7.89051L8.23358 162.956H8.57664L8.91971 163.299H9.26277L9.60584 163.642H10.292L10.635 163.985H11.3212L11.6642 164.329L12.0073 163.985L12.3504 164.329H17.8394L18.1825 163.985H19.5547L19.8978 163.642H20.5839L20.927 163.299H21.6131L21.9562 162.956H22.2993L22.6423 162.613H22.9854L23.3285 162.27H23.6715L24.3577 161.584H24.7007L25.3869 160.898H25.7299L27.1022 159.526H27.4453L27.7883 159.183V158.839L29.8467 156.781V156.438L30.8759 155.409V155.066L31.219 154.723V154.38L31.9051 153.694V153.35L32.2482 153.007V152.664L32.5912 152.321V151.635L32.9343 151.292V150.949L33.2774 150.606V149.92L33.6204 149.577V148.204L33.9635 147.861V143.745L33.6204 143.402L33.9635 143.058L33.6204 142.715V141.686L33.2774 141.343V140.314L32.9343 139.971V139.285L32.5912 138.942V138.599L32.2482 138.256V137.912L31.562 137.226V136.883L30.8759 136.197V135.854L29.5036 134.482V134.139H29.1606L27.4453 132.423H27.1022L26.7591 132.08H26.4161L26.073 131.737H25.7299L25.3869 131.394H25.0438L24.7007 131.051H24.3577L24.0146 130.708H23.3285L22.9854 130.365H22.2993L21.9562 130.022L21.6131 130.365L21.2701 130.022H16.1241Z" fill="#D09E1E"/>
<path d="M153.685 0L153.346 0.343066H151.987L151.647 0.686131H150.628L150.288 1.0292H149.269L148.929 1.37226H148.589L148.249 1.71533H147.57L147.23 2.05839H146.89L146.551 2.40146H145.871L145.531 2.74453H145.192L144.852 3.08759H144.512L143.833 3.77372H143.493L143.153 4.11679H142.814L142.134 4.80292H141.794L141.115 5.48905H140.775L140.096 6.17518H139.756L138.397 7.54744H138.057L131.942 13.7226V14.0657L129.903 16.1241V16.4672L128.544 17.8394V18.1825L127.185 19.5547V19.8978L126.166 20.927V21.2701L125.147 22.2993V22.6423L124.467 23.3285V23.6715L123.448 24.7007V25.0438L123.108 25.3869V25.7299L122.089 26.7591V27.1022L121.409 27.7883V28.1314L120.73 28.8175V29.1606L120.05 29.8467V30.1898L119.371 30.8759V31.219L118.691 31.9051V32.2482L118.352 32.5912V32.9343L117.672 33.6204V33.9635L116.993 34.6496V34.9927L116.313 35.6788V36.0219L115.973 36.365V36.708L115.294 37.3942V37.7372L114.614 38.4234V38.7664L114.275 39.1095V39.4525L113.595 40.1387V40.4817L113.255 40.8248V41.1679L112.576 41.854V42.1971L112.236 42.5401V42.8832L111.557 43.5693V43.9124L111.217 44.2555V44.5985L110.537 45.2847V45.6277L110.198 45.9708V46.3139L109.858 46.6569V47L109.178 47.6861V48.0292L108.839 48.3723V48.7153L108.159 49.4015V49.7445L107.819 50.0876V50.4307L107.14 51.1168V51.4598L106.8 51.8029V52.146L106.121 52.8321V53.1752L105.781 53.5182V53.8613L105.441 54.2044V54.5474L104.762 55.2336V55.5766L104.422 55.9197V56.2628L103.743 56.9489V57.292L103.403 57.635V57.9781L103.063 58.3212V58.6642L102.723 59.0073V59.3504L102.044 60.0365V60.3796L101.704 60.7226V61.0657L101.364 61.4088V61.7518L100.685 62.4379V62.781L100.345 63.1241V63.4671L100.005 63.8102V64.1533L99.3258 64.8394V65.1825L98.986 65.5255V65.8686L98.6463 66.2117V66.5547L98.3065 66.8978V67.2409L97.627 67.927V68.2701L97.2873 68.6131V68.9562L96.9475 69.2993L96.6078 68.9562V67.5839L96.9475 67.2409V65.8686L97.2873 65.5255V63.8102L97.627 63.4671V62.0949L97.9668 61.7518V60.3796L98.3065 60.0365V58.3212L98.6463 57.9781V56.6058L98.986 56.2628V54.5474L99.3258 54.2044V52.489L99.6655 52.146V50.0876L100.005 49.7445V48.0292L100.345 47.6861V44.9416L100.685 44.5985V39.4525L101.025 39.1095V38.0803L100.685 37.7372V31.562L100.345 31.219V29.8467L100.005 29.5036V28.1314L99.6655 27.7883V26.7591L99.3258 26.4161V25.7299L98.986 25.3869V25.0438L98.6463 24.7007V24.3577L98.3065 24.0146V23.3285L97.9668 22.9854V22.6423L97.627 22.2993V21.9562L96.9475 21.2701V20.927L96.2681 20.2409V19.8978L94.2296 17.8394V17.4963L93.8898 17.1533H93.5501L91.8513 15.438H91.5116L90.8321 14.7518H90.4923L89.8128 14.0657H89.4731L89.1333 13.7226H88.7936L88.4539 13.3796H88.1141L87.7744 13.0365H87.4346L87.0949 12.6934H86.4154L86.0756 12.3504H85.7359L85.3961 12.0073H84.3769L84.0371 11.6642H83.0179L82.6781 11.3212H81.3191L80.9794 10.9781H74.1844L73.8447 11.3212H71.8062L71.4665 11.6642H70.4472L70.1075 12.0073H69.428L69.0882 12.3504H68.4087L68.069 12.6934H67.3895L67.0497 13.0365H66.3702L66.0305 13.3796H65.6907L65.351 13.7226H65.0113L64.6715 14.0657H64.3318L63.992 14.4088H63.6523L63.3125 14.7518H62.9728L62.633 15.0949H62.2933L61.9535 15.438H61.6138L60.9343 16.1241H60.5945L59.915 16.8102H59.5753L58.8958 17.4963H58.556L56.8573 19.2117H56.5176L53.4598 22.2993V22.6423L51.4213 24.7007V25.0438L50.0623 26.4161V26.7591L49.3829 27.4453V27.7883L48.3636 28.8175V29.1606L47.6841 29.8467V30.1898L47.0046 30.8759V31.219L46.3251 31.9051V32.2482L45.9854 32.5912V32.9343L45.3059 33.6204V33.9635L44.9661 34.3066V34.6496L44.6264 34.9927V35.3358L43.9469 36.0219V36.365L43.6071 36.708V37.0511L43.2674 37.3942V37.7372L42.5879 38.4234V38.7664L42.2481 39.1095V39.4525L41.9084 39.7956V40.1387L41.5687 40.4817V40.8248L41.2289 41.1679V41.5109L40.8892 41.854V42.1971L40.5494 42.5401V42.8832L40.2097 43.2263V43.5693L39.8699 43.9124V44.2555L39.5302 44.5985V44.9416L39.1904 45.2847V45.6277L38.8507 45.9708V46.3139L38.5109 46.6569V47L38.1712 47.3431V48.0292L37.8314 48.3723V48.7153L37.4917 49.0584V49.4015L37.1519 49.7445V50.0876L36.8122 50.4307V50.7737L36.4724 51.1168V51.4598L36.1327 51.8029V52.489L35.7929 52.8321V53.1752L35.4532 53.5182V53.8613L35.1134 54.2044V54.8905L34.7737 55.2336V55.5766L34.4339 55.9197V56.2628L34.0942 56.6058V57.292L33.7545 57.635V57.9781L33.4147 58.3212V58.6642L33.075 59.0073V59.6934L32.7352 60.0365V60.7226L32.3955 61.0657V61.4088L32.0557 61.7518V62.4379L31.716 62.781V63.1241L31.3762 63.4671V64.1533L31.0365 64.4963V64.8394L30.6967 65.1825V65.8686L30.357 66.2117V66.5547L30.0172 66.8978V67.5839L29.6775 67.927V68.6131L29.3377 68.9562V69.2993L28.998 69.6423V70.3285L28.6582 70.6715V71.0146L28.3185 71.3577V72.0438L27.9787 72.3869V73.073L27.639 73.416V73.7591L27.2992 74.1022V74.7883L26.9595 75.1314V75.8175L26.6198 76.1606V76.8467L26.28 77.1898V77.5328L25.9403 77.8759V78.562L25.6005 78.9051V79.2482L25.2608 79.5912V80.2774L24.921 80.6204V81.3066L24.5813 81.6496V82.3358L24.2415 82.6788V83.365L23.9018 83.708V84.3941L23.562 84.7372V85.0803L23.2223 85.4233V86.1095L22.8825 86.4525V87.1387L22.5428 87.4817V88.1679L22.203 88.5109V88.854L21.8633 89.1971V89.8832L21.5235 90.2263V90.9124L21.1838 91.2555V91.9416L20.844 92.2847V92.9708L20.5043 93.3139V94L20.1645 94.3431V95.0292L19.8248 95.3723V96.0584L19.485 96.4014V97.0876L19.1453 97.4306V98.1168L18.8056 98.4598V99.146L18.4658 99.489V100.175L18.1261 100.518V101.204L17.7863 101.547V102.234L17.4466 102.577V102.92L17.1068 103.263V104.292L16.7671 104.635V104.978L16.4273 105.321V106.007L16.0876 106.35V107.036L15.7478 107.38V108.066L15.4081 108.409V109.095L15.0683 109.438V110.124L14.7286 110.467V111.153L14.3888 111.496V112.182L14.0491 112.526V113.212L13.7093 113.555V114.241L13.3696 114.584V115.27L13.0298 115.613V116.299L12.6901 116.642V117.672L12.3503 118.015V121.445L14.0491 123.161H14.3888L15.0683 123.847H15.4081L15.7478 124.19H16.0876L16.4273 124.533H17.1068L17.4466 124.876H18.1261L18.4658 125.219H19.1453L19.485 125.562H20.844L21.1838 125.905H26.9595L27.2992 125.562H28.6582L28.998 125.219H30.357L30.6967 124.876H31.0365L31.3762 124.533H32.0557L32.3955 124.19H32.7352L33.075 123.847H33.4147L33.7545 123.504H34.0942L34.4339 123.161H34.7737L35.1134 122.818H35.4532L37.1519 121.102V120.416L37.4917 120.073V119.387L37.8314 119.044V118.358L38.1712 118.015V117.328L38.5109 116.985V116.299L38.8507 115.956V115.27L39.1904 114.927V114.241L39.5302 113.898V113.212L39.8699 112.869V112.182L40.2097 111.839V111.153L40.5494 110.81V110.124L40.8892 109.781V109.095L41.2289 108.752V108.066L41.5687 107.723V107.036L41.9084 106.693V106.007L42.2481 105.664V104.978L42.5879 104.635V103.949L42.9276 103.606V102.92L43.2674 102.577V101.89L43.6071 101.547V100.861L43.9469 100.518V99.8321L44.2866 99.489V98.8029L44.6264 98.4598V97.7737L44.9661 97.4306V96.7445L45.3059 96.4014V95.7153L45.6456 95.3723V94.6861L45.9854 94.3431V93.6569L46.3251 93.3139V92.6277L46.6649 92.2847V91.5985L47.0046 91.2555V90.9124L47.3444 90.5693V89.8832L47.6841 89.5401V88.854L48.0239 88.5109V87.8248L48.3636 87.4817V86.7956L48.7034 86.4525V85.7664L49.0431 85.4233V85.0803L49.3829 84.7372V84.0511L49.7226 83.708V83.0219L50.0623 82.6788V82.3358L50.4021 81.9927V81.3066L50.7418 80.9635V80.2774L51.0816 79.9343V79.5912L51.4213 79.2482V78.562L51.7611 78.219V77.8759L52.1008 77.5328V76.8467L52.4406 76.5036V75.8175L52.7803 75.4744V75.1314L53.1201 74.7883V74.1022L53.4598 73.7591V73.416L53.7996 73.073V72.3869L54.1393 72.0438V71.7007L54.4791 71.3577V71.0146L54.8188 70.6715V69.9854L55.1586 69.6423V69.2993L55.4983 68.9562V68.6131L55.8381 68.2701V67.5839L56.1778 67.2409V66.8978L56.5176 66.5547V66.2117L56.8573 65.8686V65.5255L57.1971 65.1825V64.4963L57.5368 64.1533V63.8102L57.8765 63.4671V63.1241L58.2163 62.781V62.4379L58.556 62.0949V61.7518L58.8958 61.4088V60.7226L59.2355 60.3796V60.0365L59.5753 59.6934V59.3504L59.915 59.0073V58.6642L60.2548 58.3212V57.9781L60.5945 57.635V57.292L60.9343 56.9489V56.6058L61.274 56.2628V55.9197L61.6138 55.5766V55.2336L61.9535 54.8905V54.5474L62.2933 54.2044V53.8613L62.633 53.5182V53.1752L62.9728 52.8321V52.489L63.6523 51.8029V51.4598L63.992 51.1168V50.7737L64.3318 50.4307V50.0876L64.6715 49.7445V49.4015L65.351 48.7153V48.3723L65.6907 48.0292V47.6861L66.0305 47.3431V47L66.71 46.3139V45.9708L67.0497 45.6277V45.2847L67.7292 44.5985V44.2555L68.4087 43.5693V43.2263L69.428 42.1971V41.854L70.787 40.4817H71.1267L71.4665 40.1387L71.8062 40.4817H72.146L72.8255 41.1679V42.1971L73.1652 42.5401V44.5985L72.8255 44.9416V48.3723L72.4857 48.7153V50.4307L72.146 50.7737V52.8321L71.8062 53.1752V54.8905L71.4665 55.2336V56.6058L71.1267 56.9489V58.3212L70.787 58.6642V60.3796L70.4472 60.7226V62.0949L70.1075 62.4379V63.8102L69.7677 64.1533V65.1825L69.428 65.5255V67.2409L69.0882 67.5839V68.9562L68.7485 69.2993V70.6715L68.4087 71.0146V72.3869L68.069 72.7299V74.1022L67.7292 74.4452V75.4744L67.3895 75.8175V76.8467L67.0497 77.1898V78.9051L66.71 79.2482V80.2774L66.3702 80.6204V82.3358L66.0305 82.6788V83.708L65.6907 84.0511V85.4233L65.351 85.7664V87.1387L65.0113 87.4817V88.5109L64.6715 88.854V90.2263L64.3318 90.5693V91.5985L63.992 91.9416V93.3139L63.6523 93.6569V95.0292L63.3125 95.3723V96.7445L62.9728 97.0876V98.4598L62.633 98.8029V101.204L62.2933 101.547V103.606L61.9535 103.949V107.38L61.6138 107.723V111.496L61.9535 111.839V112.182L61.6138 112.526L61.9535 112.869V114.927L62.2933 115.27V116.299L62.633 116.642V117.672L62.9728 118.015V118.701L63.3125 119.044V119.387L63.6523 119.73V120.073L63.992 120.416V120.759L64.6715 121.445V121.788L65.6907 122.818V123.161L66.3702 123.847H66.71L68.069 125.219H68.4087L68.7485 125.562H69.0882L69.428 125.905H69.7677L70.1075 126.248H70.4472L70.787 126.591H71.4665L71.8062 126.934H72.4857L72.8255 127.277H74.1844L74.5242 127.62H79.9602L80.2999 127.277H80.9794L81.3191 126.934H82.3384L82.6781 126.591H83.3576L83.6974 126.248H84.0371L84.3769 125.905H84.7166L85.0564 125.562H85.3961L85.7359 125.219H86.0756L86.7551 124.533H87.0949L88.1141 123.504H88.4539L90.1526 121.788H90.4923L93.2103 119.044V118.701L95.2488 116.642V116.299L96.2681 115.27V114.927L97.2873 113.898V113.555L97.9668 112.869V112.526L98.6463 111.839V111.496L99.6655 110.467V110.124L100.005 109.781V109.438L100.685 108.752V108.409L101.364 107.723V107.38L102.044 106.693V106.35L102.384 106.007V105.664L103.063 104.978V104.635L103.743 103.949V103.606L104.082 103.263V102.92L104.762 102.234V101.89L105.101 101.547V101.204L105.781 100.518V100.175L106.121 99.8321V99.489L106.8 98.8029V98.4598L107.14 98.1168V97.7737L107.819 97.0876V96.7445L108.159 96.4014V96.0584L108.839 95.3723V95.0292L109.178 94.6861V94.3431L109.518 94V93.6569L110.198 92.9708V92.6277L110.537 92.2847V91.9416L110.877 91.5985V91.2555L111.557 90.5693V90.2263L111.896 89.8832V89.5401L112.576 88.854V88.5109L112.916 88.1679V87.8248L113.255 87.4817V87.1387L113.935 86.4525V86.1095L114.275 85.7664V85.4233L114.614 85.0803V84.7372L115.294 84.0511V83.708L115.634 83.365V83.0219L115.973 82.6788V82.3358L116.313 81.9927V81.6496L116.993 80.9635V80.6204L117.332 80.2774V79.9343L117.672 79.5912V79.2482L118.352 78.562V78.219L118.691 77.8759V77.5328L119.031 77.1898V76.8467L119.711 76.1606V75.8175L120.05 75.4744V75.1314L120.73 74.4452V74.1022L121.07 73.7591V73.416L121.409 73.073V72.7299L121.749 72.3869V72.0438L122.429 71.3577V71.0146L122.768 70.6715V70.3285L123.448 69.6423V69.2993L123.788 68.9562V68.6131L124.127 68.2701V67.927L124.807 67.2409V66.8978L125.147 66.5547V66.2117L125.826 65.5255V65.1825L126.166 64.8394V64.4963L126.845 63.8102V63.4671L127.185 63.1241V62.781L127.865 62.0949V61.7518L128.204 61.4088V61.0657L128.884 60.3796V60.0365L129.224 59.6934V59.3504L129.903 58.6642V58.3212L130.583 57.635V57.292L130.922 56.9489V56.6058L131.602 55.9197V55.5766L132.281 54.8905V54.5474L132.961 53.8613V53.5182L133.301 53.1752V52.8321L133.98 52.146V51.8029L134.999 50.7737V50.4307L135.679 49.7445V49.4015L136.358 48.7153V48.3723L137.038 47.6861V47.3431L137.717 46.6569V46.3139L138.397 45.6277V45.2847L139.076 44.5985V44.2555L140.096 43.2263V42.8832L141.115 41.854V41.5109L142.134 40.4817V40.1387L143.153 39.1095V38.7664L144.172 37.7372V37.3942L145.192 36.365V36.0219L146.89 34.3066V33.9635L149.608 31.219H149.948L150.288 30.8759H151.307L151.987 31.562V35.3358L151.647 35.6788V36.708L151.307 37.0511V38.4234L150.967 38.7664V39.7956L150.628 40.1387V40.8248L150.288 41.1679V42.1971L149.948 42.5401V43.5693L149.608 43.9124V44.9416L149.269 45.2847V46.3139L148.929 46.6569V47.3431L148.589 47.6861V48.7153L148.249 49.0584V49.7445L147.91 50.0876V51.1168L147.57 51.4598V52.489L147.23 52.8321V53.5182L146.89 53.8613V54.8905L146.551 55.2336V55.9197L146.211 56.2628V57.292L145.871 57.635V58.3212L145.531 58.6642V59.6934L145.192 60.0365V60.7226L144.852 61.0657V62.0949L144.512 62.4379V63.1241L144.172 63.4671V64.4963L143.833 64.8394V65.8686L143.493 66.2117V66.8978L143.153 67.2409V68.2701L142.814 68.6131V69.2993L142.474 69.6423V70.6715L142.134 71.0146V71.7007L141.794 72.0438V73.073L141.455 73.416V74.4452L141.115 74.7883V75.8175L140.775 76.1606V77.1898L140.435 77.5328V78.219L140.096 78.562V79.5912L139.756 79.9343V80.9635L139.416 81.3066V82.3358L139.076 82.6788V83.708L138.737 84.0511V85.0803L138.397 85.4233V86.4525L138.057 86.7956V87.8248L137.717 88.1679V89.1971L137.378 89.5401V90.5693L137.038 90.9124V92.2847L136.698 92.6277V93.6569L136.358 94V95.3723L136.019 95.7153V96.7445L135.679 97.0876V98.4598L135.339 98.8029V99.8321L134.999 100.175V102.234L134.66 102.577V103.949L134.32 104.292V105.664L133.98 106.007V107.723L133.64 108.066V109.438L133.301 109.781L133.64 110.124L133.301 110.467V112.182L132.961 112.526V113.898L132.621 114.241V116.642L132.281 116.985V121.102L131.942 121.445V133.796L132.281 134.139V136.54L132.621 136.883V138.599L132.961 138.942V139.971L133.301 140.314V141.343L133.64 141.686V142.715L133.98 143.058V143.745L134.32 144.088V144.774L134.66 145.117V145.46L134.999 145.803V146.489L135.339 146.832V147.175L135.679 147.518V147.861L136.019 148.204V148.547L136.358 148.89V149.234L136.698 149.577V149.92L137.038 150.263V150.606L137.717 151.292V151.635L138.397 152.321V152.664L139.076 153.35V153.693L140.096 154.723V155.066L142.134 157.124V157.467L142.474 157.81H142.814L144.852 159.869H145.192L146.211 160.898H146.551L147.23 161.584H147.57L147.91 161.927H148.249L148.929 162.613H149.269L149.608 162.956H149.948L150.288 163.299H150.628L150.967 163.642H151.307L151.647 163.985H151.987L152.326 164.328H152.666L153.006 164.672H153.685L154.025 165.015H154.705L155.044 165.358H155.384L155.724 165.701H156.403L156.743 166.044H157.762L158.102 166.387H159.121L159.461 166.73H160.48L160.82 167.073H162.519L162.859 167.416H165.237L165.577 167.759H173.391L173.731 167.416H175.09L175.429 167.073H176.109L176.449 166.73H177.128L177.468 166.387H177.808L178.147 166.044H178.487L178.827 165.701H179.167L179.506 165.358H179.846L180.526 164.672H180.865L184.263 161.241V160.898L184.942 160.212V159.869L185.622 159.182V158.839L185.961 158.496V158.153L186.301 157.81V157.467L186.641 157.124V156.781L186.981 156.438V155.752L187.32 155.409V154.723L187.66 154.38V152.664L188 152.321V150.606L187.66 150.263V148.89L187.32 148.547V147.861L186.981 147.518V147.175L186.641 146.832V146.489L185.622 145.46V145.117L184.942 144.431H184.602L183.923 143.745H183.583L183.243 143.401H182.564L182.224 143.058H181.545L181.205 142.715H177.128L176.788 142.372H172.372L172.032 142.029H170.673L170.333 141.686H169.654L169.314 141.343H168.634L168.295 141H167.955L167.615 140.657H167.275L166.936 140.314H166.596L166.256 139.971H165.916L165.237 139.285H164.897L162.179 136.54V136.197L161.839 135.854V135.511L161.5 135.168V134.825L161.16 134.482V134.139L160.82 133.796V133.109L160.48 132.766V132.08L160.141 131.737V129.679L159.801 129.336V122.131L160.141 121.788V119.044L160.48 118.701V116.299L160.82 115.956V113.212L161.16 112.869V111.153L161.5 110.81V109.095L161.839 108.752V107.036L162.179 106.693V105.321L162.519 104.978V103.606L162.859 103.263V101.547L163.198 101.204V99.8321L163.538 99.489V97.7737L163.878 97.4306V96.4014L164.218 96.0584V95.0292L164.557 94.6861V93.3139L164.897 92.9708V91.9416L165.237 91.5985V90.5693L165.577 90.2263V89.1971L165.916 88.854V87.4817L166.256 87.1387V86.1095L166.596 85.7664V84.7372L166.936 84.3941V83.365L167.275 83.0219V81.9927L167.615 81.6496V80.6204L167.955 80.2774V79.2482L168.295 78.9051V77.5328L168.634 77.1898V76.5036L168.974 76.1606V75.1314L169.314 74.7883V73.7591L169.654 73.416V72.3869L169.993 72.0438V71.0146L170.333 70.6715V69.6423L170.673 69.2993V68.2701L171.013 67.927V67.2409L171.352 66.8978V65.8686L171.692 65.5255V64.4963L172.032 64.1533V63.4671L172.372 63.1241V62.0949L172.711 61.7518V60.7226L173.051 60.3796V59.3504L173.391 59.0073V57.9781L173.731 57.635V56.9489L174.07 56.6058V55.5766L174.41 55.2336V54.2044L174.75 53.8613V53.1752L175.09 52.8321V51.8029L175.429 51.4598V50.4307L175.769 50.0876V49.0584L176.109 48.7153V48.0292L176.449 47.6861V46.6569L176.788 46.3139V45.6277L177.128 45.2847V44.2555L177.468 43.9124V42.8832L177.808 42.5401V41.5109L178.147 41.1679V40.4817L178.487 40.1387V39.1095L178.827 38.7664V37.7372L179.167 37.3942V36.365L179.506 36.0219V34.3066L179.846 33.9635V32.2482L180.186 31.9051V21.2701L179.846 20.927V18.8686L179.506 18.5255V17.1533L179.167 16.8102V15.781L178.827 15.438V14.7518L178.487 14.4088V14.0657L178.147 13.7226V13.0365L177.808 12.6934V12.3504L177.468 12.0073V11.6642L177.128 11.3212V10.9781L176.788 10.635V10.292L176.109 9.60584V9.26277L175.09 8.23358V7.89051L171.013 3.77372H170.673L169.993 3.08759H169.654L169.314 2.74453H168.974L168.634 2.40146H168.295L167.955 2.05839H167.615L167.275 1.71533H166.936L166.596 1.37226H165.916L165.577 1.0292H164.897L164.557 0.686131H163.878L163.538 0.343066H162.179L161.839 0H153.685Z" fill="#F9F9E7"/>
</svg>
